NotoSansLycian-Regular.ufo
<glyph name="u10280" format="2">
  <advance width="601"/>
  <unicode hex="10280"/>
  <outline>
    <contour>
      <point x="98" y="0" type="line"/>
      <point x="188" y="0" type="line"/>
      <point x="188" y="268" type="line"/>
      <point x="562" y="268" type="line"/>
      <point x="562" y="344" type="line"/>
      <point x="188" y="714" type="line"/>
      <point x="98" y="714" type="line"/>
    </contour>
    <contour>
      <point x="188" y="344" type="line"/>
      <point x="188" y="603" type="line"/>
      <point x="450" y="344" type="line"/>
    </contour>
  </outline>
</glyph>
<glyph name="u10283" format="2">
  <advance width="744"/>
  <unicode hex="10283"/>
  <outline>
    <contour>
      <point x="98" y="0" type="line"/>
      <point x="188" y="0" type="line"/>
      <point x="188" y="559" type="line"/>
      <point x="266" y="422" type="line"/>
      <point x="341" y="422" type="line"/>
      <point x="412" y="563" type="line"/>
      <point x="483" y="422" type="line"/>
      <point x="558" y="422" type="line"/>
      <point x="705" y="679" type="line"/>
      <point x="636" y="720" type="line"/>
      <point x="521" y="514" type="line"/>
      <point x="443" y="670" type="line"/>
      <point x="381" y="670" type="line"/>
      <point x="302" y="514" type="line"/>
      <point x="188" y="714" type="line"/>
      <point x="98" y="714" type="line"/>
    </contour>
  </outline>
</glyph>
<glyph name="u10284" format="2">
  <advance width="556"/>
  <unicode hex="10284"/>
  <outline>
    <contour>
      <point x="98" y="0" type="line"/>
      <point x="188" y="0" type="line"/>
      <point x="188" y="315" type="line"/>
      <point x="517" y="670" type="line"/>
      <point x="459" y="724" type="line"/>
      <point x="188" y="431" type="line"/>
      <point x="188" y="714" type="line"/>
      <point x="98" y="714" type="line"/>
    </contour>
  </outline>
</glyph>
<glyph name="u10285" format="2">
  <advance width="600"/>
  <unicode hex="10285"/>
  <outline>
    <contour>
      <point x="20" y="0" type="line"/>
      <point x="580" y="0" type="line"/>
      <point x="580" y="54" type="line"/>
      <point x="344" y="714" type="line"/>
      <point x="254" y="714" type="line"/>
      <point x="20" y="55" type="line"/>
    </contour>
    <contour>
      <point x="116" y="77" type="line"/>
      <point x="250" y="455" type="line" smooth="yes"/>
      <point x="270" y="511"/>
      <point x="286" y="568"/>
      <point x="298" y="616" type="curve"/>
      <point x="309" y="568"/>
      <point x="327" y="511"/>
      <point x="348" y="451" type="curve" smooth="yes"/>
      <point x="481" y="77" type="line"/>
    </contour>
  </outline>
</glyph>
<glyph name="u10286" format="2">
  <advance width="555"/>
  <unicode hex="10286"/>
  <outline>
    <contour>
      <point x="98" y="0" type="line"/>
      <point x="497" y="0" type="line"/>
      <point x="497" y="77" type="line"/>
      <point x="188" y="77" type="line"/>
      <point x="188" y="334" type="line"/>
      <point x="479" y="334" type="line"/>
      <point x="479" y="411" type="line"/>
      <point x="188" y="411" type="line"/>
      <point x="188" y="637" type="line"/>
      <point x="497" y="637" type="line"/>
      <point x="497" y="714" type="line"/>
      <point x="98" y="714" type="line"/>
    </contour>
  </outline>
</glyph>
<glyph name="u10287" format="2">
  <advance width="526"/>
  <unicode hex="10287"/>
  <outline>
    <contour>
      <point x="98" y="0" type="line"/>
      <point x="188" y="0" type="line"/>
      <point x="188" y="305" type="line"/>
      <point x="478" y="305" type="line"/>
      <point x="478" y="381" type="line"/>
      <point x="188" y="381" type="line"/>
      <point x="188" y="637" type="line"/>
      <point x="497" y="637" type="line"/>
      <point x="497" y="714" type="line"/>
      <point x="98" y="714" type="line"/>
    </contour>
  </outline>
</glyph>
<glyph name="u10288" format="2">
  <advance width="540"/>
  <unicode hex="10288"/>
  <outline>
    <contour>
      <point x="49" y="0" type="line"/>
      <point x="491" y="0" type="line"/>
      <point x="491" y="77" type="line"/>
      <point x="314" y="77" type="line"/>
      <point x="314" y="637" type="line"/>
      <point x="491" y="637" type="line"/>
      <point x="491" y="714" type="line"/>
      <point x="49" y="714" type="line"/>
      <point x="49" y="637" type="line"/>
      <point x="225" y="637" type="line"/>
      <point x="225" y="77" type="line"/>
      <point x="49" y="77" type="line"/>
    </contour>
  </outline>
</glyph>
<glyph name="u10289" format="2">
  <advance width="642"/>
  <unicode hex="10289"/>
  <outline>
    <contour>
      <point x="55" y="-10" type="line"/>
      <point x="168" y="15"/>
      <point x="266" y="75"/>
      <point x="321" y="169" type="curve"/>
      <point x="375" y="75"/>
      <point x="473" y="15"/>
      <point x="586" y="-10" type="curve"/>
      <point x="603" y="67" type="line"/>
      <point x="470" y="106"/>
      <point x="368" y="188"/>
      <point x="368" y="355" type="curve" smooth="yes"/>
      <point x="368" y="520"/>
      <point x="470" y="609"/>
      <point x="603" y="646" type="curve"/>
      <point x="586" y="724" type="line"/>
      <point x="469" y="698"/>
      <point x="374" y="637"/>
      <point x="321" y="544" type="curve"/>
      <point x="268" y="637"/>
      <point x="173" y="698"/>
      <point x="55" y="724" type="curve"/>
      <point x="39" y="646" type="line"/>
      <point x="171" y="609"/>
      <point x="273" y="520"/>
      <point x="273" y="355" type="curve" smooth="yes"/>
      <point x="273" y="188"/>
      <point x="171" y="106"/>
      <point x="39" y="67" type="curve"/>
    </contour>
  </outline>
</glyph>
<glyph name="u1028A" format="2">
  <advance width="334"/>
  <unicode hex="1028A"/>
  <outline>
    <contour>
      <point x="122" y="0" type="line"/>
      <point x="212" y="0" type="line"/>
      <point x="212" y="714" type="line"/>
      <point x="122" y="714" type="line"/>
    </contour>
  </outline>
</glyph>
<glyph name="u1028B" format="2">
  <advance width="530"/>
  <unicode hex="1028B"/>
  <outline>
    <contour>
      <point x="98" y="0" type="line"/>
      <point x="188" y="0" type="line"/>
      <point x="188" y="291" type="line"/>
      <point x="442" y="83" type="line"/>
      <point x="491" y="146" type="line"/>
      <point x="224" y="366" type="line"/>
      <point x="491" y="586" type="line"/>
      <point x="442" y="649" type="line"/>
      <point x="188" y="441" type="line"/>
      <point x="188" y="714" type="line"/>
      <point x="98" y="714" type="line"/>
    </contour>
  </outline>
</glyph>
<glyph name="u1028C" format="2">
  <advance width="718"/>
  <unicode hex="1028C"/>
  <outline>
    <contour>
      <point x="318" y="0" type="line"/>
      <point x="408" y="0" type="line"/>
      <point x="408" y="258" type="line"/>
      <point x="604" y="62" type="line"/>
      <point x="662" y="120" type="line"/>
      <point x="421" y="361" type="line"/>
      <point x="654" y="594" type="line"/>
      <point x="596" y="652" type="line"/>
      <point x="408" y="464" type="line"/>
      <point x="408" y="714" type="line"/>
      <point x="318" y="714" type="line"/>
      <point x="318" y="464" type="line"/>
      <point x="130" y="652" type="line"/>
      <point x="71" y="594" type="line"/>
      <point x="304" y="361" type="line"/>
      <point x="63" y="120" type="line"/>
      <point x="122" y="62" type="line"/>
      <point x="318" y="258" type="line"/>
    </contour>
  </outline>
</glyph>
<glyph name="u1028D" format="2">
  <advance width="629"/>
  <unicode hex="1028D"/>
  <outline>
    <contour>
      <point x="15" y="0" type="line"/>
      <point x="109" y="0" type="line"/>
      <point x="270" y="458" type="line" smooth="yes"/>
      <point x="291" y="517"/>
      <point x="305" y="567"/>
      <point x="314" y="614" type="curve"/>
      <point x="324" y="567"/>
      <point x="339" y="516"/>
      <point x="360" y="456" type="curve" smooth="yes"/>
      <point x="520" y="0" type="line"/>
      <point x="615" y="0" type="line"/>
      <point x="360" y="714" type="line"/>
      <point x="270" y="714" type="line"/>
    </contour>
  </outline>
</glyph>
<glyph name="u1028E" format="2">
  <advance width="857"/>
  <unicode hex="1028E"/>
  <outline>
    <contour>
      <point x="24" y="186" type="curve"/>
      <point x="116" y="186" type="line"/>
      <point x="180" y="436" type="line" smooth="yes"/>
      <point x="196" y="498"/>
      <point x="208" y="556"/>
      <point x="214" y="606" type="curve"/>
      <point x="390" y="186" type="line"/>
      <point x="482" y="186" type="line"/>
      <point x="642" y="606" type="line"/>
      <point x="647" y="557"/>
      <point x="660" y="498"/>
      <point x="676" y="435" type="curve" smooth="yes"/>
      <point x="741" y="186" type="line"/>
      <point x="833" y="186" type="line"/>
      <point x="690" y="714" type="line"/>
      <point x="600" y="714" type="line"/>
      <point x="436" y="291" type="line"/>
      <point x="435" y="298"/>
      <point x="431" y="316"/>
      <point x="255" y="714" type="curve"/>
      <point x="165" y="714" type="line"/>
      <point x="123" y="557"/>
      <point x="71" y="363"/>
    </contour>
  </outline>
</glyph>
<glyph name="u1028F" format="2">
  <advance width="735"/>
  <unicode hex="1028F"/>
  <outline>
    <contour>
      <point x="98" y="186" type="line"/>
      <point x="188" y="186" type="line"/>
      <point x="188" y="399" type="line" smooth="yes"/>
      <point x="188" y="472"/>
      <point x="183" y="551"/>
      <point x="179" y="598" type="curve"/>
      <point x="183" y="598" type="line"/>
      <point x="531" y="186" type="line"/>
      <point x="637" y="186" type="line"/>
      <point x="637" y="714" type="line"/>
      <point x="547" y="714" type="line"/>
      <point x="547" y="497" type="line" smooth="yes"/>
      <point x="547" y="432"/>
      <point x="552" y="326"/>
      <point x="554" y="294" type="curve"/>
      <point x="550" y="294" type="line"/>
      <point x="199" y="714" type="line"/>
      <point x="98" y="714" type="line"/>
    </contour>
  </outline>
</glyph>
<glyph name="u10290" format="2">
  <advance width="588"/>
  <unicode hex="10290"/>
  <outline>
    <contour>
      <point x="5" y="0" type="line"/>
      <point x="100" y="0" type="line"/>
      <point x="292" y="310" type="line"/>
      <point x="481" y="0" type="line"/>
      <point x="583" y="0" type="line"/>
      <point x="345" y="374" type="line"/>
      <point x="566" y="714" type="line"/>
      <point x="471" y="714" type="line"/>
      <point x="295" y="434" type="line"/>
      <point x="120" y="714" type="line"/>
      <point x="20" y="714" type="line"/>
      <point x="242" y="372" type="line"/>
    </contour>
  </outline>
</glyph>
<glyph name="u10293" format="2">
  <advance width="628"/>
  <unicode hex="10293"/>
  <outline>
    <contour>
      <point x="98" y="0" type="line"/>
      <point x="188" y="0" type="line"/>
      <point x="188" y="637" type="line"/>
      <point x="202" y="637" type="line" smooth="yes"/>
      <point x="363" y="637"/>
      <point x="479" y="507"/>
      <point x="479" y="327" type="curve" smooth="yes"/>
      <point x="479" y="299" type="line"/>
      <point x="569" y="299" type="line"/>
      <point x="569" y="327" type="line" smooth="yes"/>
      <point x="569" y="549"/>
      <point x="416" y="714"/>
      <point x="202" y="714" type="curve" smooth="yes"/>
      <point x="98" y="714" type="line"/>
    </contour>
  </outline>
</glyph>
<glyph name="u10294" format="2">
  <advance width="744"/>
  <unicode hex="10294"/>
  <outline>
    <contour>
      <point x="344" y="-7" type="line"/>
      <point x="400" y="-7" type="line"/>
      <point x="685" y="333" type="line"/>
      <point x="685" y="380" type="line"/>
      <point x="400" y="721" type="line"/>
      <point x="344" y="721" type="line"/>
      <point x="59" y="380" type="line"/>
      <point x="59" y="333" type="line"/>
    </contour>
    <contour>
      <point x="372" y="89" type="line"/>
      <point x="149" y="357" type="line"/>
      <point x="372" y="624" type="line"/>
      <point x="595" y="357" type="line"/>
    </contour>
  </outline>
</glyph>
<glyph name="u10295" format="2">
  <advance width="617"/>
  <unicode hex="10295"/>
  <outline>
    <contour>
      <point x="98" y="0" type="line"/>
      <point x="188" y="0" type="line"/>
      <point x="188" y="278" type="line"/>
      <point x="270" y="278" type="line" smooth="yes"/>
      <point x="483" y="278"/>
      <point x="556" y="381"/>
      <point x="556" y="499" type="curve" smooth="yes"/>
      <point x="556" y="632"/>
      <point x="474" y="714"/>
      <point x="287" y="714" type="curve" smooth="yes"/>
      <point x="98" y="714" type="line"/>
    </contour>
    <contour>
      <point x="188" y="355" type="line"/>
      <point x="188" y="637" type="line"/>
      <point x="278" y="637" type="line" smooth="yes"/>
      <point x="404" y="637"/>
      <point x="461" y="592"/>
      <point x="461" y="500" type="curve" smooth="yes"/>
      <point x="461" y="395"/>
      <point x="396" y="355"/>
      <point x="259" y="355" type="curve" smooth="yes"/>
    </contour>
  </outline>
</glyph>
<glyph name="u10296" format="2">
  <advance width="428"/>
  <unicode hex="10296"/>
  <outline>
    <contour>
      <point x="104" y="-16" type="line"/>
      <point x="330" y="99"/>
      <point x="358" y="193"/>
      <point x="358" y="252" type="curve" smooth="yes"/>
      <point x="358" y="395"/>
      <point x="170" y="367"/>
      <point x="170" y="489" type="curve" smooth="yes"/>
      <point x="170" y="544"/>
      <point x="228" y="584"/>
      <point x="364" y="654" type="curve"/>
      <point x="328" y="729" type="line"/>
      <point x="176" y="663"/>
      <point x="75" y="581"/>
      <point x="75" y="478" type="curve" smooth="yes"/>
      <point x="75" y="321"/>
      <point x="264" y="318"/>
      <point x="264" y="241" type="curve" smooth="yes"/>
      <point x="264" y="188"/>
      <point x="184" y="112"/>
      <point x="63" y="60" type="curve"/>
    </contour>
  </outline>
</glyph>
<glyph name="u10297" format="2">
  <advance width="564"/>
  <unicode hex="10297"/>
  <outline>
    <contour>
      <point x="238" y="0" type="line"/>
      <point x="328" y="0" type="line"/>
      <point x="328" y="637" type="line"/>
      <point x="550" y="637" type="line"/>
      <point x="550" y="714" type="line"/>
      <point x="15" y="714" type="line"/>
      <point x="15" y="637" type="line"/>
      <point x="238" y="637" type="line"/>
    </contour>
  </outline>
</glyph>
<glyph name="u10298" format="2">
  <advance width="814"/>
  <unicode hex="10298"/>
  <outline>
    <contour>
      <point x="208" y="467" type="line"/>
      <point x="284" y="467" type="line"/>
      <point x="407" y="628" type="line"/>
      <point x="531" y="467" type="line"/>
      <point x="606" y="467" type="line"/>
      <point x="765" y="674" type="line"/>
      <point x="703" y="724" type="line"/>
      <point x="569" y="549" type="line"/>
      <point x="441" y="714" type="line"/>
      <point x="372" y="714" type="line"/>
      <point x="245" y="549" type="line"/>
      <point x="111" y="724" type="line"/>
      <point x="49" y="675" type="line"/>
    </contour>
    <contour>
      <point x="362" y="0" type="line"/>
      <point x="452" y="0" type="line"/>
      <point x="452" y="482" type="line"/>
      <point x="362" y="482" type="line"/>
    </contour>
  </outline>
</glyph>
<glyph name="u10299" format="2">
  <advance width="629"/>
  <unicode hex="10299"/>
  <outline>
    <contour>
      <point x="270" y="0" type="line"/>
      <point x="360" y="0" type="line"/>
      <point x="615" y="714" type="line"/>
      <point x="522" y="714" type="line"/>
      <point x="478" y="589" type="line"/>
      <point x="435" y="714" type="line"/>
      <point x="362" y="714" type="line"/>
      <point x="443" y="488" type="line"/>
      <point x="396" y="352" type="line"/>
      <point x="269" y="714" type="line"/>
      <point x="196" y="714" type="line"/>
      <point x="361" y="253" type="line"/>
      <point x="340" y="196"/>
      <point x="323" y="143"/>
      <point x="314" y="98" type="curve"/>
      <point x="305" y="145"/>
      <point x="288" y="197"/>
      <point x="267" y="256" type="curve" smooth="yes"/>
      <point x="106" y="714" type="line"/>
      <point x="15" y="714" type="line"/>
    </contour>
  </outline>
</glyph>
<glyph name="u1029A" format="2">
  <advance width="844"/>
  <unicode hex="1029A"/>
  <outline>
    <contour>
      <point x="210" y="467" type="line"/>
      <point x="275" y="467" type="line"/>
      <point x="422" y="575" type="line"/>
      <point x="569" y="467" type="line"/>
      <point x="634" y="467" type="line"/>
      <point x="795" y="676" type="line"/>
      <point x="733" y="724" type="line"/>
      <point x="600" y="545" type="line"/>
      <point x="490" y="625" type="line"/>
      <point x="547" y="666" type="line"/>
      <point x="499" y="729" type="line"/>
      <point x="422" y="673" type="line"/>
      <point x="346" y="729" type="line"/>
      <point x="297" y="666" type="line"/>
      <point x="354" y="625" type="line"/>
      <point x="245" y="545" type="line"/>
      <point x="111" y="724" type="line"/>
      <point x="49" y="676" type="line"/>
    </contour>
    <contour>
      <point x="377" y="0" type="line"/>
      <point x="467" y="0" type="line"/>
      <point x="467" y="482" type="line"/>
      <point x="377" y="482" type="line"/>
    </contour>
  </outline>
</glyph>
<glyph name="u1029C" format="2">
  <advance width="629"/>
  <unicode hex="1029C"/>
  <outline>
    <contour>
      <point x="267" y="0" type="line"/>
      <point x="362" y="0" type="line"/>
      <point x="615" y="714" type="line"/>
      <point x="520" y="714" type="line"/>
      <point x="388" y="298" type="line" smooth="yes"/>
      <point x="374" y="253"/>
      <point x="362" y="208"/>
      <point x="354" y="163" type="curve"/>
      <point x="354" y="714" type="line"/>
      <point x="273" y="714" type="line"/>
      <point x="273" y="165" type="line"/>
      <point x="264" y="208"/>
      <point x="254" y="255"/>
      <point x="240" y="299" type="curve" smooth="yes"/>
      <point x="109" y="714" type="line"/>
      <point x="15" y="714" type="line"/>
    </contour>
  </outline>
</glyph>
